<?xml version="1.0" encoding="iso-8859-1"?>
<!-- Generator: Adobe Illustrator 19.0.0, SVG Export Plug-In . SVG Version: 6.00 Build 0)  -->
<svg version="1.1" id="Capa_1" xmlns="http://www.w3.org/2000/svg" xmlns:xlink="http://www.w3.org/1999/xlink" x="0px" y="0px"
	 viewBox="0 0 512 512" style="enable-background:new 0 0 512 512;" xml:space="preserve">
<path style="fill:#D2E4FF;" d="M266.07,511.798L266.07,511.798C124.796,517.359,5.763,407.343,0.202,266.07v-0.001
	C-5.359,124.796,104.657,5.763,245.93,0.202h0.001C387.204-5.359,506.237,104.657,511.798,245.93v0.001
	C517.359,387.204,407.343,506.237,266.07,511.798z"/>
<path style="fill:#B6D7FF;" d="M511.798,245.931L511.798,245.931c-3.61-91.701-55.039-170.217-129.317-212.518
	c36.292,42.26,59.119,96.602,61.48,156.587l0,0c5.561,141.273-104.455,260.306-245.728,265.867l0,0
	c-49.572,1.951-96.396-10.344-136.55-33.211c49.182,57.268,123.099,92.341,204.387,89.141l0,0
	C407.343,506.237,517.359,387.204,511.798,245.931z"/>
<circle style="fill:#175BE7;" cx="255.65" cy="181.41" r="59.52"/>
<path style="fill:#6CA5FF;" d="M376.305,389H129.612c-4.403,0-7.612-3.43-7.612-7.833v-38.38C122,303.524,153.468,272,192.731,272
	h120.456C352.449,272,384,303.524,384,342.787v38.38C384,385.57,380.709,389,376.305,389z"/>
<g>
	<rect x="169" y="345" style="fill:#175BE7;" width="17" height="44"/>
	<rect x="320" y="345" style="fill:#175BE7;" width="16" height="44"/>
</g>
<g>
</g>
<g>
</g>
<g>
</g>
<g>
</g>
<g>
</g>
<g>
</g>
<g>
</g>
<g>
</g>
<g>
</g>
<g>
</g>
<g>
</g>
<g>
</g>
<g>
</g>
<g>
</g>
<g>
</g>
</svg>
